<svg width="48" height="43" viewBox="0 0 48 43" fill="none" xmlns="http://www.w3.org/2000/svg">
    <path d="M32 42.875H26.6667V38.125H32V42.875ZM26.6667 26.25H21.3333V38.125H26.6667V26.25ZM48 21.5H42.6667V31H48V21.5ZM42.6667 16.75H37.3333V21.5H42.6667V16.75ZM10.6667 21.5H5.33333V26.25H10.6667V21.5ZM5.33333 16.75H0V21.5H5.33333V16.75ZM24 4.875H29.3333V0.125H24V4.875ZM4 3.6875V10.8125H12V3.6875H4ZM16 14.375H0V0.125H16V14.375ZM4 32.1875V39.3125H12V32.1875H4ZM16 42.875H0V28.625H16V42.875ZM36 3.6875V10.8125H44V3.6875H36ZM48 14.375H32V0.125H48V14.375ZM42.6667 38.125V31H32V35.75H37.3333V42.875H48V38.125H42.6667ZM37.3333 21.5H26.6667V26.25H37.3333V21.5ZM26.6667 16.75H10.6667V21.5H16V26.25H21.3333V21.5H26.6667V16.75ZM29.3333 14.375V9.625H24V4.875H18.6667V14.375H29.3333ZM10 5.46875H6V9.03125H10V5.46875ZM10 33.9688H6V37.5312H10V33.9688ZM42 5.46875H38V9.03125H42V5.46875Z" fill="black"/>
</svg>
